<svg xmlns="http://www.w3.org/2000/svg" viewBox="0 0 1024 1024"><defs><style>.cls-1{fill:#3b4149;}</style></defs><title>europe-symbol-eur</title><g id="_13" data-name="13"><path class="cls-1" d="M362.23,540.82h-.33a30.66,30.66,0,0,1-30.33-31c2.1-197.68,100.8-281.6,159.45-314,82.33-45.53,185-44.62,261.52,2.32a30.66,30.66,0,1,1-32.06,52.27c-58-35.58-136.46-35.94-199.79-.93-81.1,44.84-126.48,137.53-127.79,261A30.66,30.66,0,0,1,362.23,540.82Z"/><path class="cls-1" d="M621.55,861.72A270.62,270.62,0,0,1,491,828.2c-58.65-32.42-157.35-116.34-159.45-314a30.66,30.66,0,0,1,30.33-31h.33a30.66,30.66,0,0,1,30.65,30.33c1.31,123.47,46.69,216.17,127.79,261,63.34,35,141.77,34.66,199.79-.93a30.66,30.66,0,1,1,32.06,52.27C713.59,849.75,667.89,861.72,621.55,861.72Z"/><path class="cls-1" d="M521.41,469.2H287.5a30.66,30.66,0,0,1,0-61.32H521.41a30.66,30.66,0,0,1,0,61.32Z"/><path class="cls-1" d="M521.41,615H287.5a30.66,30.66,0,0,1,0-61.32H521.41a30.66,30.66,0,0,1,0,61.32Z"/></g></svg>